<svg width="837" height="594" viewBox="0 0 837 594" fill="none" xmlns="http://www.w3.org/2000/svg">
<path d="M478.522 500.834C493.125 598.144 643.981 612.056 714.418 575.432C730.204 567.232 724.599 543.016 706.08 544.89C682.678 547.254 666.631 515.268 658.661 498.484C648.787 477.723 646.868 454.382 649.156 431.855C650.323 420.431 638.499 409.313 627.12 414.964C580.776 437.982 534.432 461.001 488.104 484.019C469.769 493.125 482.084 522.624 500.573 513.441C546.901 490.422 593.245 467.404 639.589 444.386C632.234 438.765 624.893 433.13 617.538 427.51C612.071 481.224 639.543 583.709 710.303 576.569C707.523 566.388 704.728 556.207 701.949 546.011C670.239 562.503 640.157 565.666 605.161 559.662C567.939 553.274 516.727 540.498 510.139 496.611C507.099 476.264 475.45 480.441 478.522 500.834Z" fill="white"/>
<path d="M723.339 159.689C700.336 24.9872 541.48 -33.6414 437.521 56.8813C444.984 57.818 452.447 58.7394 459.925 59.6761C383.299 -25.426 250.563 -19.1454 184.948 76.199C189.908 74.1566 194.853 72.1143 199.797 70.072C59.2297 51.0461 -46.5567 195.729 20.8248 323.167C28.1034 336.941 37.8544 349.702 48.9874 360.558C54.6844 366.133 55.1451 396.353 57.8016 405.904C66.1091 435.71 85.3807 461.185 107.462 482.115C155.112 527.323 226.516 534.755 286.128 512.766C280.815 512.09 275.501 511.414 270.188 510.739C379.691 599.157 561.335 575.095 655.896 476.111C650.952 478.153 646.007 480.196 641.063 482.238C726.579 491.39 811.651 439.979 831.659 353.28C852.359 263.571 801.178 174.737 713.696 147.051C694.194 140.878 681.756 170.33 701.365 176.534C833.917 218.486 836.527 401.512 704.927 446.244C689.387 451.526 671.958 452.325 655.773 451.68C645.209 451.265 638.421 448.471 630.559 456.701C606.251 482.146 576.568 499.575 544.183 512.704C479.243 539.009 402.233 539.408 337.17 513.933C324.947 509.142 313.538 502.6 302.604 495.367C294.957 490.3 288.016 480.856 277.774 482.223C265.121 483.912 252.698 490.1 239.814 492.235C224.029 494.861 208.181 493.264 192.564 490.546C129.943 479.612 87.7609 422.765 81.7414 362.155C79.0848 335.436 52.8417 318.053 41.5705 293.008C27.1053 260.853 28.472 223.4 39.8353 190.707C62.4084 125.814 130.097 92.8908 195.451 101.736C200.872 102.473 207.106 100.246 210.3 95.6087C263.555 18.2153 371.214 8.75611 434.726 79.3008C440.3 85.4892 450.22 88.1151 457.13 82.111C542.186 8.03439 672.573 51.86 691.706 163.896C695.177 184.166 726.825 180.02 723.339 159.689Z" fill="white"/>
<path d="M707.522 161.793C695.468 77.1515 617.537 17.8626 532.727 29.1799C499.497 33.6023 470.136 48.2518 447.317 69.4889C414.149 30.439 362.492 8.5109 307.979 15.7896C260.867 22.0701 221.525 48.8353 197.616 85.9043C182.383 83.2478 166.49 82.8332 150.351 84.9983C65.0491 96.377 5.09994 174.845 16.4633 260.27C21.4846 297.984 39.5892 330.738 65.5559 354.601C65.6173 361.02 66.0166 367.484 66.8918 374.011C78.2552 459.435 156.616 519.461 241.918 508.082C255.247 506.301 267.961 502.877 279.893 498.055C325.116 536.475 398.931 556.208 478.705 545.566C547.929 536.337 606.895 506.194 643.227 466.407C656.955 468.342 671.144 468.495 685.548 466.576C770.85 455.197 830.799 376.729 819.436 291.304C810.974 227.746 765.429 178.285 707.522 161.793Z" fill="#60A5FA"/>
<path d="M738.264 174.246C739.355 195.622 736.974 217.166 730.894 237.697C716.428 286.497 681.509 328.864 636.394 352.343C617.614 362.11 595.363 368.713 575.4 361.649C547.714 422.458 471.518 444.77 404.828 442.052C365.778 440.455 321.092 428.278 305.537 392.376C235.852 422.489 144.823 383.546 118.411 312.295C78.1937 301.239 43.7659 270.819 27.7959 232.23C23.9108 222.832 21.1468 212.974 19.4883 202.931C15.0659 221.189 13.8374 240.537 16.4632 260.27C21.4846 297.984 39.5891 330.738 65.5559 354.601C65.6173 361.019 66.0165 367.484 66.8918 374.01C78.2551 459.435 156.616 519.461 241.918 508.082C255.247 506.301 267.961 502.877 279.893 498.055C325.116 536.475 398.931 556.207 478.705 545.566C547.929 536.337 606.895 506.193 643.227 466.406C656.955 468.341 671.144 468.495 685.548 466.575C770.849 455.197 830.799 376.728 819.435 291.304C812.541 239.524 781.03 197.111 738.264 174.246Z" fill="#60A5FA"/>
<path d="M488.148 33.8937C473.145 29.1641 454.258 48.2053 445.275 58.4937C430.671 75.2163 420.106 97.6819 419.308 120.117C419.292 120.67 420.076 121.069 420.398 120.516C429.596 104.423 437.059 87.9002 448.607 73.22C456.438 63.2848 465.682 54.7623 476.293 47.9136C482.436 43.9518 486.167 42.9536 489.392 36.581C489.883 35.5982 489.146 34.2008 488.148 33.8937Z" fill="white"/>
<path d="M216.734 81.6809C210.024 77.4427 202.714 74.1259 194.914 72.5903C186.069 70.8551 184.226 71.3157 177.239 76.291C176.748 76.6289 176.64 77.5656 177.101 77.9802C179.911 80.5446 181.585 83.9536 185.577 84.6292C194.407 86.1341 203.237 88.4529 211.744 91.263C226.915 96.315 244.836 107.31 254.203 120.516C254.433 120.854 254.94 120.424 254.694 120.101C242.809 105.191 233.227 92.0922 216.734 81.6809Z" fill="white"/>
<path d="M120.055 367.822C102.165 366.056 87.4696 361.787 71.2385 354.094C58.3396 347.967 49.8478 336.834 37.5785 330.569C36.2733 329.908 34.3691 331.152 34.3691 332.596C34.4306 347.368 51.1224 356.013 62.7928 361.879C79.8685 370.463 101.966 377.696 120.101 368.114C120.239 368.037 120.208 367.837 120.055 367.822Z" fill="white"/>
<path d="M292.808 510.247C285.667 505.778 280.323 498.715 275.456 491.989C265.444 478.184 254.956 463.059 249.213 446.873C249.09 446.52 248.583 446.735 248.614 447.073C250.026 464.886 258.687 481.793 268.238 496.672C273.813 505.364 286.282 522.793 298.182 519.43C299.058 519.184 299.488 518.401 299.15 517.526C297.415 512.888 297.184 512.98 292.808 510.247Z" fill="white"/>
<path d="M654.99 407.947C654.867 407.671 654.391 407.717 654.391 408.054C654.391 423.61 655.19 437.031 650.092 452.11C646.851 461.738 641.201 470 634.352 477.371C630.39 481.624 627.211 483.928 625.737 489.732C625.384 491.129 626.305 492.235 627.733 492.128C642.199 491.068 650.061 470.414 654.606 458.667C660.518 443.404 662.468 422.934 654.99 407.947Z" fill="white"/>
<path d="M698.016 107.571C696.911 106.696 695.544 107.847 695.682 109.061C697.325 123.91 704.066 137.192 706.385 152.011C709.702 173.217 704.02 192.842 699.045 213.142C698.845 213.972 699.813 214.524 700.366 213.833C720.942 188.082 726.363 129.914 698.016 107.571Z" fill="white"/>
<path d="M494.337 498.731C495.336 518.893 508.572 536.905 525.187 548.345C541.818 559.785 560.183 567.801 579.747 572.715C597.836 577.245 617.629 579.011 636.271 579.257C661.317 579.594 686.424 573.13 708.198 560.722C694.24 564.668 680.112 555.133 670.146 544.583C641.585 514.378 627.641 470.89 633.354 429.675L494.337 498.731Z" fill="#60A5FA"/>
<path d="M192.201 272.215C187.487 272.215 183.679 270.787 180.777 267.915C177.859 265.013 176.416 261.404 176.416 257.104V186.652C176.416 182.322 177.859 178.713 180.777 175.841C183.679 172.985 187.487 171.542 192.201 171.542H215.235C221.531 171.542 227.09 172.34 231.881 173.937C236.703 175.504 240.756 177.561 244.043 180.141C247.359 182.721 249.847 185.731 251.536 189.17C253.21 192.579 254.055 196.034 254.055 199.551C254.055 203.037 253.517 205.923 252.458 208.211C251.429 210.515 250.277 212.327 249.018 213.678C247.498 215.321 245.824 216.611 243.981 217.548V218.961C247.452 220.035 250.569 221.571 253.318 223.567C255.652 225.333 257.801 227.744 259.767 230.815C261.733 233.856 262.715 237.818 262.715 242.731C262.715 246.463 261.809 250.102 260.013 253.665C258.247 257.227 255.667 260.391 252.273 263.124C248.864 265.827 244.657 268.022 239.62 269.696C234.583 271.385 228.84 272.215 222.422 272.215H192.201ZM222.422 244.881C224.633 244.881 226.368 244.267 227.643 243.039C228.948 241.779 229.608 240.244 229.608 238.432C229.608 236.589 228.948 235.054 227.643 233.825C226.368 232.566 224.633 231.921 222.422 231.921H208.049V244.881H222.422ZM215.235 208.949C217.032 208.949 218.444 208.488 219.473 207.536C220.487 206.553 221.009 205.355 221.009 203.912C221.009 202.438 220.487 201.24 219.473 200.288C218.444 199.351 217.032 198.875 215.235 198.875H208.049V208.949H215.235Z" fill="white"/>
<path d="M315.92 275.102C309.287 275.102 303.298 274.119 297.985 272.153C292.656 270.188 288.111 267.408 284.349 263.8C280.617 260.206 277.746 255.876 275.749 250.839C273.738 245.803 272.74 240.213 272.74 234.071V186.652C272.74 182.322 274.183 178.713 277.101 175.841C280.049 172.985 283.873 171.542 288.587 171.542C293.255 171.542 297.033 172.985 299.95 175.841C302.899 178.713 304.373 182.322 304.373 186.652V234.071C304.373 237.357 305.371 239.967 307.383 241.933C309.425 243.898 312.266 244.881 315.92 244.881C319.56 244.881 322.385 243.898 324.397 241.933C326.393 239.967 327.407 237.357 327.407 234.071V186.652C327.407 182.322 328.85 178.713 331.768 175.841C334.716 172.985 338.54 171.542 343.254 171.542C347.922 171.542 351.699 172.985 354.617 175.841C357.565 178.713 359.04 182.322 359.04 186.652V234.071C359.04 240.213 358.026 245.803 356.03 250.839C354.018 255.876 351.131 260.206 347.369 263.8C343.638 267.408 339.108 270.188 333.795 272.153C328.466 274.119 322.508 275.102 315.92 275.102Z" fill="white"/>
<path d="M390.676 272.215C385.962 272.215 382.153 270.787 379.251 267.915C376.334 265.013 374.89 261.404 374.89 257.104V186.652C374.89 182.322 376.334 178.713 379.251 175.841C382.153 172.985 385.962 171.542 390.676 171.542H413.71C420.006 171.542 425.564 172.34 430.355 173.937C435.177 175.504 439.231 177.561 442.517 180.141C445.834 182.721 448.322 185.731 450.011 189.17C451.685 192.579 452.529 196.034 452.529 199.551C452.529 203.037 451.992 205.923 450.932 208.211C449.903 210.515 448.752 212.327 447.493 213.678C445.972 215.321 444.299 216.611 442.456 217.548V218.961C445.926 220.035 449.043 221.571 451.792 223.567C454.126 225.333 456.276 227.744 458.242 230.815C460.207 233.856 461.19 237.818 461.19 242.731C461.19 246.463 460.284 250.102 458.487 253.665C456.721 257.227 454.142 260.391 450.748 263.124C447.339 265.827 443.131 268.022 438.095 269.696C433.058 271.385 427.315 272.215 420.896 272.215H390.676ZM420.896 244.881C423.107 244.881 424.843 244.267 426.117 243.039C427.422 241.779 428.083 240.244 428.083 238.432C428.083 236.589 427.422 235.054 426.117 233.825C424.843 232.566 423.107 231.921 420.896 231.921H406.523V244.881H420.896ZM413.71 208.949C415.506 208.949 416.919 208.488 417.948 207.536C418.961 206.553 419.483 205.355 419.483 203.912C419.483 202.438 418.961 201.24 417.948 200.288C416.919 199.351 415.506 198.875 413.71 198.875H406.523V208.949H413.71Z" fill="white"/>
<path d="M488.476 272.215C483.762 272.215 479.953 270.787 477.051 267.915C474.133 265.013 472.69 261.404 472.69 257.104V186.652C472.69 182.322 474.133 178.713 477.051 175.841C479.953 172.985 483.762 171.542 488.476 171.542C493.175 171.542 496.983 172.985 499.9 175.841C502.849 178.713 504.323 182.322 504.323 186.652V241.994H517.283V241.257C517.283 236.958 518.727 233.38 521.644 230.508C524.547 227.652 528.355 226.209 533.069 226.209C537.768 226.209 541.576 227.652 544.494 230.508C547.442 233.38 548.916 236.958 548.916 241.257V257.104C548.916 261.404 547.442 265.013 544.494 267.915C541.576 270.787 537.768 272.215 533.069 272.215H488.476Z" fill="white"/>
<path d="M576.207 272.215C571.493 272.215 567.685 270.787 564.782 267.915C561.865 265.013 560.421 261.404 560.421 257.104V186.652C560.421 182.322 561.865 178.713 564.782 175.841C567.685 172.985 571.493 171.542 576.207 171.542H620.801C625.499 171.542 629.308 172.985 632.225 175.841C635.174 178.713 636.648 182.322 636.648 186.652C636.648 190.952 635.174 194.545 632.225 197.401C629.308 200.273 625.499 201.701 620.801 201.701H592.054V207.474H611.464C613.553 207.474 615.533 207.874 617.422 208.641C619.296 209.425 620.893 210.469 622.213 211.774C623.565 213.049 624.624 214.538 625.407 216.258C626.175 217.978 626.574 219.851 626.574 221.847C626.574 223.859 626.175 225.748 625.407 227.498C624.624 229.218 623.565 230.739 622.213 232.044C620.893 233.318 619.296 234.347 617.422 235.115C615.533 235.898 613.553 236.282 611.464 236.282H592.054V241.994H620.801C625.499 241.994 629.308 243.453 632.225 246.355C635.174 249.227 636.648 252.805 636.648 257.104C636.648 261.404 635.174 265.013 632.225 267.915C629.308 270.787 625.499 272.215 620.801 272.215H576.207Z" fill="white"/>
<path d="M265.572 401.88C257.987 401.88 250.969 400.498 244.504 397.765C238.024 395.031 232.419 391.284 227.674 386.524C222.914 381.779 219.167 376.174 216.434 369.694C213.685 363.229 212.318 356.212 212.318 348.626C212.318 341.055 213.685 334.038 216.434 327.558C219.167 321.093 222.914 315.488 227.674 310.728C232.419 305.983 238.024 302.251 244.504 299.549C250.969 296.815 257.987 295.433 265.572 295.433C272.16 295.433 278.226 296.416 283.754 298.382C289.282 300.347 293.965 302.804 297.82 305.752C301.705 308.67 304.73 311.803 306.91 315.15C309.075 318.513 310.166 321.523 310.166 324.179C310.166 326.391 309.736 328.464 308.876 330.383C308.016 332.318 306.849 333.992 305.375 335.42C303.931 336.863 302.258 337.984 300.338 338.798C298.449 339.627 296.438 340.027 294.319 340.027C291.078 340.027 288.545 339.336 286.702 337.938C284.89 336.556 283.6 335.328 282.832 334.253C282.049 333.193 281.128 332.072 280.068 330.875C279.039 329.692 277.796 328.602 276.321 327.619C274.878 326.606 273.25 325.776 271.408 325.162C269.596 324.517 267.661 324.179 265.572 324.179C262.701 324.179 259.952 324.794 257.342 326.022C254.762 327.22 252.459 328.894 250.462 331.059C248.451 333.193 246.854 335.773 245.671 338.798C244.52 341.839 243.951 345.109 243.951 348.626C243.951 352.281 244.52 355.597 245.671 358.576C246.854 361.571 248.451 364.151 250.462 366.316C252.459 368.45 254.762 370.109 257.342 371.291C259.952 372.489 262.701 373.072 265.572 373.072C267.661 373.072 269.596 372.765 271.408 372.151C273.25 371.537 274.878 370.738 276.321 369.755C277.796 368.742 279.039 367.636 280.068 366.439C281.128 365.21 282.049 364.089 282.832 363.06C283.6 362.001 284.89 360.772 286.702 359.375C288.545 357.993 291.078 357.287 294.319 357.287C296.438 357.287 298.449 357.717 300.338 358.576C302.258 359.436 303.931 360.588 305.375 362.016C306.849 363.46 308.016 365.133 308.876 367.053C309.736 368.988 310.166 370.984 310.166 373.072C310.166 375.775 309.075 378.815 306.91 382.163C304.73 385.526 301.705 388.674 297.82 391.622C293.965 394.54 289.282 396.966 283.754 398.932C278.226 400.897 272.16 401.88 265.572 401.88Z" fill="white"/>
<path d="M337.455 398.992C332.741 398.992 328.933 397.564 326.03 394.693C323.113 391.791 321.669 388.182 321.669 383.882V313.43C321.669 309.099 323.113 305.491 326.03 302.619C328.933 299.763 332.741 298.32 337.455 298.32C342.154 298.32 345.962 299.763 348.88 302.619C351.828 305.491 353.302 309.099 353.302 313.43V331.365H377.749V313.43C377.749 309.099 379.192 305.491 382.11 302.619C385.058 299.763 388.882 298.32 393.596 298.32C398.264 298.32 402.042 299.763 404.96 302.619C407.908 305.491 409.382 309.099 409.382 313.43V383.882C409.382 388.182 407.908 391.791 404.96 394.693C402.042 397.564 398.264 398.992 393.596 398.992C388.882 398.992 385.058 397.564 382.11 394.693C379.192 391.791 377.749 388.182 377.749 383.882V361.586H353.302V383.882C353.302 388.182 351.828 391.791 348.88 394.693C345.962 397.564 342.154 398.992 337.455 398.992Z" fill="white"/>
<path d="M435.996 398.992C430.913 398.992 426.875 397.564 423.896 394.693C420.901 391.79 419.412 388.182 419.412 383.882C419.412 383.022 419.504 382.101 419.719 381.118C419.918 380.105 420.164 379.153 420.456 378.293C420.824 377.233 421.208 376.235 421.623 375.283L448.219 308.393C449.156 306.274 450.446 304.339 452.089 302.619C453.44 301.191 455.252 299.886 457.556 298.688C459.844 297.459 462.73 296.845 466.216 296.845C469.564 296.845 472.42 297.459 474.754 298.688C477.088 299.886 478.931 301.191 480.282 302.619C481.91 304.339 483.2 306.274 484.152 308.393L510.81 375.283L511.792 378.293C512.069 379.153 512.345 380.105 512.591 381.118C512.837 382.101 512.959 383.022 512.959 383.882C512.959 388.182 511.455 391.79 508.475 394.693C505.527 397.564 501.489 398.992 496.375 398.992C493.504 398.992 491.093 398.409 489.127 397.211C487.162 395.983 485.595 394.662 484.459 393.218C483.108 391.499 482.033 389.594 481.265 387.506L479.852 383.145H452.519L451.106 387.506C450.246 389.594 449.141 391.499 447.789 393.218C446.638 394.662 445.102 395.983 443.182 397.211C441.248 398.409 438.852 398.992 435.996 398.992ZM472.666 360.173L466.892 342.913H465.479L459.705 360.173H472.666Z" fill="white"/>
<path d="M556.066 398.992C551.352 398.992 547.544 397.564 544.642 394.693C541.724 391.791 540.281 388.182 540.281 383.882V328.478H530.207C525.493 328.478 521.669 327.05 518.721 324.179C515.803 321.323 514.36 317.729 514.36 313.43C514.36 309.099 515.803 305.491 518.721 302.619C521.669 299.763 525.493 298.32 530.207 298.32H581.987C586.655 298.32 590.433 299.763 593.35 302.619C596.299 305.491 597.773 309.099 597.773 313.43C597.773 317.729 596.299 321.323 593.35 324.179C590.433 327.05 586.655 328.478 581.987 328.478H571.914V383.882C571.914 388.182 570.439 391.791 567.491 394.693C564.573 397.564 560.765 398.992 556.066 398.992Z" fill="white"/>
</svg>
